HIERARCHY
ROOT Hips
{
  OFFSET 5.80788e-005 67.184 3.4734
  CHANNELS 6 Xposition Yposition Zposition Zrotation Xrotation Yrotation
  JOINT Chest
  {
    OFFSET 0 8.7983 -4.7612
    CHANNELS 3 Zrotation Xrotation Yrotation
    JOINT Chest2
    {
      OFFSET 0 8.0291 0.4195
      CHANNELS 3 Zrotation Xrotation Yrotation
      JOINT Chest3
      {
        OFFSET 0 9.9351 -2.2114
        CHANNELS 3 Zrotation Xrotation Yrotation
        JOINT Neck
        {
          OFFSET 0 22.3885 -0.4656
          CHANNELS 3 Zrotation Xrotation Yrotation
          JOINT Head
          {
            OFFSET -0.0001 12.643 3.4389
            CHANNELS 3 Zrotation Xrotation Yrotation
            End Site
            {
              OFFSET 0.0001 17.6655 0.5274
            }
          }
        }
        JOINT LeftCollar
        {
          OFFSET 2.2603 21.606 7.4023
          CHANNELS 3 Zrotation Xrotation Yrotation
          JOINT LeftShoulder
          {
            OFFSET 13.5163 -1.1332 -5.0146
            CHANNELS 3 Zrotation Xrotation Yrotation
            JOINT LeftElbow
            {
              OFFSET -0.0995 -28.05 -0.2431
              CHANNELS 3 Zrotation Xrotation Yrotation
              JOINT LeftWrist
              {
                OFFSET 0.0679 -23.3996 -0.1402
                CHANNELS 3 Zrotation Xrotation Yrotation
                JOINT LeftFinger1
                {
                  OFFSET 0.7932 -9.069 2.5189
                  CHANNELS 3 Zrotation Xrotation Yrotation
                  JOINT LeftFinger11
                  {
                    OFFSET -0.8272 -3.3923 0.5977
                    CHANNELS 3 Zrotation Xrotation Yrotation
                    JOINT LeftFinger12
                    {
                      OFFSET -0.5649 -2.3158 0.4082
                      CHANNELS 3 Zrotation Xrotation Yrotation
                      End Site
                      {
                        OFFSET -0.4919 -1.6479 0.2673
                      }
                    }
                  }
                }
                JOINT LeftFinger2
                {
                  OFFSET 0.9159 -9.2044 0.2193
                  CHANNELS 3 Zrotation Xrotation Yrotation
                  JOINT LeftFinger21
                  {
                    OFFSET 0.0117 -4.1944 -0.0248
                    CHANNELS 3 Zrotation Xrotation Yrotation
                    JOINT LeftFinger22
                    {
                      OFFSET 0.0071 -2.3249 -0.0142
                      CHANNELS 3 Zrotation Xrotation Yrotation
                      End Site
                      {
                        OFFSET -0.1475 -2.0882 0.0028
                      }
                    }
                  }
                }
                JOINT LeftFinger3
                {
                  OFFSET 0.6113 -8.7231 -2.0637
                  CHANNELS 3 Zrotation Xrotation Yrotation
                  JOINT LeftFinger31
                  {
                    OFFSET -0.1927 -3.8059 -0.2383
                    CHANNELS 3 Zrotation Xrotation Yrotation
                    JOINT LeftFinger32
                    {
                      OFFSET -0.1091 -2.1688 -0.1362
                      CHANNELS 3 Zrotation Xrotation Yrotation
                      End Site
                      {
                        OFFSET -0.2358 -1.9176 -0.0906
                      }
                    }
                  }
                }
                JOINT LeftFinger4
                {
                  OFFSET -0.6151 -8.0947 -3.5641
                  CHANNELS 3 Zrotation Xrotation Yrotation
                  JOINT LeftFinger41
                  {
                    OFFSET -0.4882 -2.341 -0.6462
                    CHANNELS 3 Zrotation Xrotation Yrotation
                    JOINT LeftFinger42
                    {
                      OFFSET -0.3575 -1.7167 -0.4742
                      CHANNELS 3 Zrotation Xrotation Yrotation
                      End Site
                      {
                        OFFSET -0.4187 -1.5237 -0.3496
                      }
                    }
                  }
                }
                JOINT LeftFinger0
                {
                  OFFSET -1.42 -1.8761 1.4223
                  CHANNELS 3 Zrotation Xrotation Yrotation
                  JOINT LeftFinger01
                  {
                    OFFSET -1.1471 -3.4929 2.6334
                    CHANNELS 3 Zrotation Xrotation Yrotation
                    JOINT LeftFinger02
                    {
                      OFFSET -0.823 -2.3 1.6571
                      CHANNELS 3 Zrotation Xrotation Yrotation
                      End Site
                      {
                        OFFSET -0.5822 -1.6914 1.1582
                      }
                    }
                  }
                }
              }
            }
          }
        }
        JOINT RightCollar
        {
          OFFSET -2.2603 21.606 7.4023
          CHANNELS 3 Zrotation Xrotation Yrotation
          JOINT RightShoulder
          {
            OFFSET -13.5187 -1.1334 -5.0155
            CHANNELS 3 Zrotation Xrotation Yrotation
            JOINT RightElbow
            {
              OFFSET 0.0994 -28.0499 -0.2431
              CHANNELS 3 Zrotation Xrotation Yrotation
              JOINT RightWrist
              {
                OFFSET -0.0679 -23.3996 -0.1402
                CHANNELS 3 Zrotation Xrotation Yrotation
                JOINT RightFinger1
                {
                  OFFSET -0.7932 -9.0691 2.5189
                  CHANNELS 3 Zrotation Xrotation Yrotation
                  JOINT RightFinger11
                  {
                    OFFSET 0.8272 -3.3923 0.5977
                    CHANNELS 3 Zrotation Xrotation Yrotation
                    JOINT RightFinger12
                    {
                      OFFSET 0.565 -2.3158 0.4082
                      CHANNELS 3 Zrotation Xrotation Yrotation
                      End Site
                      {
                        OFFSET 0.4919 -1.6479 0.2673
                      }
                    }
                  }
                }
                JOINT RightFinger2
                {
                  OFFSET -0.916 -9.2044 0.2193
                  CHANNELS 3 Zrotation Xrotation Yrotation
                  JOINT RightFinger21
                  {
                    OFFSET -0.0117 -4.1944 -0.0248
                    CHANNELS 3 Zrotation Xrotation Yrotation
                    JOINT RightFinger22
                    {
                      OFFSET -0.0071 -2.3249 -0.0142
                      CHANNELS 3 Zrotation Xrotation Yrotation
                      End Site
                      {
                        OFFSET 0.1475 -2.0882 0.0028
                      }
                    }
                  }
                }
                JOINT RightFinger3
                {
                  OFFSET -0.6113 -8.7231 -2.0637
                  CHANNELS 3 Zrotation Xrotation Yrotation
                  JOINT RightFinger31
                  {
                    OFFSET 0.1927 -3.8059 -0.2383
                    CHANNELS 3 Zrotation Xrotation Yrotation
                    JOINT RightFinger32
                    {
                      OFFSET 0.1091 -2.1688 -0.1362
                      CHANNELS 3 Zrotation Xrotation Yrotation
                      End Site
                      {
                        OFFSET 0.2358 -1.9176 -0.0906
                      }
                    }
                  }
                }
                JOINT RightFinger4
                {
                  OFFSET 0.6151 -8.0947 -3.564
                  CHANNELS 3 Zrotation Xrotation Yrotation
                  JOINT RightFinger41
                  {
                    OFFSET 0.4882 -2.341 -0.6462
                    CHANNELS 3 Zrotation Xrotation Yrotation
                    JOINT RightFinger42
                    {
                      OFFSET 0.3574 -1.7166 -0.4742
                      CHANNELS 3 Zrotation Xrotation Yrotation
                      End Site
                      {
                        OFFSET 0.4187 -1.5237 -0.3496
                      }
                    }
                  }
                }
                JOINT RightFinger0
                {
                  OFFSET 1.4199 -1.8761 1.4221
                  CHANNELS 3 Zrotation Xrotation Yrotation
                  JOINT RightFinger01
                  {
                    OFFSET 1.1472 -3.4929 2.6336
                    CHANNELS 3 Zrotation Xrotation Yrotation
                    JOINT RightFinger02
                    {
                      OFFSET 0.8229 -2.3 1.6571
                      CHANNELS 3 Zrotation Xrotation Yrotation
                      End Site
                      {
                        OFFSET 0.5822 -1.6914 1.1582
                      }
                    }
                  }
                }
              }
            }
          }
        }
      }
    }
  }
  JOINT RightHip
  {
    OFFSET -9.412 3.9771 -0.7758
    CHANNELS 3 Zrotation Xrotation Yrotation
    JOINT RightKnee
    {
      OFFSET -0.7531 -40.938 0
      CHANNELS 3 Zrotation Xrotation Yrotation
      JOINT RightAnkle
      {
        OFFSET 0 -40.1986 0
        CHANNELS 3 Zrotation Xrotation Yrotation
        JOINT RightToe
        {
          OFFSET 0 -4.4182 9.239
          CHANNELS 3 Zrotation Xrotation Yrotation
          End Site
          {
            OFFSET 0 0 6.1981
          }
        }
      }
    }
  }
  JOINT LeftHip
  {
    OFFSET 9.4119 3.9773 -0.7758
    CHANNELS 3 Zrotation Xrotation Yrotation
    JOINT LeftKnee
    {
      OFFSET 0.7532 -40.9383 0
      CHANNELS 3 Zrotation Xrotation Yrotation
      JOINT LeftAnkle
      {
        OFFSET 0 -40.1986 0
        CHANNELS 3 Zrotation Xrotation Yrotation
        JOINT LeftToe
        {
          OFFSET 0 -4.4182 9.239
          CHANNELS 3 Zrotation Xrotation Yrotation
          End Site
          {
            OFFSET 0 0 6.1981
          }
        }
      }
    }
  }
}
MOTION
Frames:	4
Frame Time:	0.0333333
5.80788e-005 67.184 3.4734 0 0 -0 0 0 -0 0 0 -0 0 0 -0 0 0 -0 0 0 -0 0 0 -12.5014 88.1196 14.2451 10.6914 -0.00160068 -0.00239207 0.000740045 -8.4365e-005 7.00714e-005 -9.52055e-007 9.93923e-017 -1.98785e-016 -1.59028e-015 9.93923e-017 -5.96354e-016 -1.59028e-015 -9.93923e-017 -5.96354e-016 -1.59028e-015 9.93923e-017 -1.98785e-016 -1.59028e-015 -0.0128176 0.00232552 8.52707e-005 9.93923e-017 5.96354e-016 -0 9.93923e-017 -1.98785e-016 -1.59028e-015 -0.0160551 0.00299681 0.000857156 -2.48481e-016 0 3.18055e-015 9.93923e-017 -1.98785e-016 -1.59028e-015 -0.0125865 0.0031206 0.00282719 0 1.98785e-016 -0 9.93923e-017 -1.98785e-016 -1.59028e-015 9.93923e-017 -5.96354e-016 -1.59028e-015 -9.93923e-017 -5.96354e-016 -1.59028e-015 -0.865644 0.16582 7.03859 -88.0329 10.2057 -10.5567 0.0015593 -0.00248883 -0.000788628 7.87605e-005 4.10553e-005 1.24965e-005 -3.97569e-016 -7.95139e-016 3.18055e-015 -1.98785e-016 -3.97569e-016 3.18055e-015 -1.98785e-016 0 3.18055e-015 -3.97569e-016 -7.95139e-016 3.18055e-015 0.0129473 0.00231697 -8.70038e-005 9.93923e-017 -7.95139e-016 1.59028e-015 -3.97569e-016 -7.95139e-016 3.18055e-015 0.0163314 0.00303369 -0.000872333 3.97569e-016 7.95139e-016 -3.18055e-015 -3.97569e-016 -7.95139e-016 3.18055e-015 0.0145763 0.00367772 -0.00326275 9.93923e-017 -3.97569e-016 -0 -3.97569e-016 -7.95139e-016 3.18055e-015 -1.98785e-016 -3.97569e-016 3.18055e-015 -1.98785e-016 0 3.18055e-015 3.42485 1.36937 -0.0640303 0.000136572 0.69354 0.00145564 -3.42573 -2.06297 -0.0607933 -3.19502e-024 0 -1.48106e-024 -3.42498 1.36123 0.0639712 -6.769e-005 0.712612 -0.0012277 3.42582 -2.07388 0.0612819 2.55305e-023 0 -2.31416e-026 
-0.00161487 6.43782 114.295 -0.0122375 0.0122375 180 -0.148713 18.1238 -0.150814 -0.265792 36.2481 -0.271181 -0.265791 36.2478 -0.271179 2.05713e-005 -11.0119 1.758e-005 1.1272e-007 -4.00326 -1.97787e-007 54.5851 -55.3726 59.4845 12.8531 -30.0725 2.75509 -118.645 -69.8371 -164.892 8.10686 12.9268 17.6452 -7.63128e-006 -4.46023e-006 -1.17529e-005 -7.95139e-016 0 2.78299e-015 -3.08535e-006 -3.39521e-006 -3.74591e-006 -7.63128e-006 -4.46023e-006 -1.17529e-005 -0.0128279 0.00232592 8.32857e-005 -1.19271e-015 3.18055e-015 1.98785e-015 -7.63128e-006 -4.46023e-006 -1.17529e-005 -0.0160361 0.00298827 0.000860338 1.98785e-015 -3.18055e-015 -3.57812e-015 -7.63128e-006 -4.46023e-006 -1.17529e-005 -0.0126 0.00313303 0.00283445 5.93929e-007 -5.76172e-007 1.25829e-006 -7.63128e-006 -4.46023e-006 -1.17529e-005 -7.95139e-016 0 2.78299e-015 -3.08535e-006 -3.39521e-006 -3.74591e-006 -31.1818 -34.0871 -54.2855 5.64364 -30.6318 12.0674 152.957 -68.2656 138.774 -6.71765 58.5146 -10.0672 -3.90784e-006 3.76761e-006 -4.44962e-009 -2.34566e-014 0 1.21259e-014 -2.40529e-014 -3.18055e-015 1.35174e-014 -3.90784e-006 3.76761e-006 -4.44962e-009 0.0129652 0.00232669 -9.24263e-005 -6.79595e-006 -1.61347e-006 2.30523e-007 -3.90784e-006 3.76761e-006 -4.44962e-009 0.0163675 0.003048 -0.000869656 -4.94285e-006 3.28089e-006 1.43123e-006 -3.90784e-006 3.76761e-006 -4.44962e-009 0.0146016 0.00368258 -0.00326526 2.41422e-006 -1.47667e-006 -2.33244e-006 -3.90784e-006 3.76761e-006 -4.44962e-009 -2.34566e-014 0 1.21259e-014 -2.40529e-014 -3.18055e-015 1.35174e-014 -8.85804 -50.5844 -18.0903 -175.932 21.5521 169.383 -7.54798 43.5158 -7.01136 7.95139e-016 -2.99267e-006 -1.59028e-015 8.84183 -50.565 18.0514 175.954 21.5605 -169.406 7.53938 43.5035 6.99653 -9.20531e-008 2.42047e-006 -1.88363e-006 
-0.00161488 6.43782 114.295 -0.0122375 0.0122528 180 -0.149802 18.4309 -0.153237 -0.266879 36.8623 -0.275743 -0.266877 36.862 -0.275741 2.17038e-005 -13.5233 1.8243e-005 1.04121e-007 -2.5471 -2.41032e-007 58.294 -55.6286 64.3253 12.8415 -30.0887 2.73962 -119.735 -69.5412 -165.946 7.65058 13.775 19.031 -1.59028e-015 -3.18055e-015 -1.19271e-015 -3.97569e-015 -6.36111e-015 -3.97569e-016 6.14596e-007 -1.99081e-007 1.25428e-006 -1.59028e-015 -3.18055e-015 -1.19271e-015 -0.0128274 0.00233711 9.36348e-005 -7.95139e-016 -3.18055e-015 2.18663e-015 -1.59028e-015 -3.18055e-015 -1.19271e-015 -0.0160436 0.00298029 0.000854187 -1.59028e-015 -3.18055e-015 -1.19271e-015 -1.59028e-015 -3.18055e-015 -1.19271e-015 -0.0125916 0.00312431 0.00283606 1.59028e-015 0 -6.75868e-015 -1.59028e-015 -3.18055e-015 -1.19271e-015 -3.97569e-015 -6.36111e-015 -3.97569e-016 6.14596e-007 -1.99081e-007 1.25428e-006 -32.7238 -34.6693 -57.4562 5.81841 -30.7131 12.3713 153.389 -67.6065 139.243 -6.71763 58.5146 -10.0672 -7.06197e-007 -2.05147e-006 -1.06797e-006 5.76959e-006 5.82522e-006 -1.97777e-006 5.86415e-015 -6.36111e-015 -5.96354e-016 -7.06197e-007 -2.05147e-006 -1.06797e-006 0.0129251 0.00230973 -8.72796e-005 -9.93923e-016 0 -7.95139e-016 -7.06197e-007 -2.05147e-006 -1.06797e-006 0.0163473 0.00304072 -0.00087338 1.09332e-015 0 4.37326e-015 -7.06197e-007 -2.05147e-006 -1.06797e-006 0.0145949 0.00368473 -0.00326473 -6.65312e-006 -5.91099e-006 3.59833e-006 -7.06197e-007 -2.05147e-006 -1.06797e-006 5.76959e-006 5.82522e-006 -1.97777e-006 5.86415e-015 -6.36111e-015 -5.96354e-016 -8.85792 -50.5844 -18.0902 -175.932 21.552 169.383 -7.54797 43.5157 -7.01137 4.60973e-008 -4.47222e-009 9.41782e-007 8.84182 -50.565 18.0514 175.954 21.5605 -169.406 7.53939 43.5034 6.99653 -3.72128e-007 5.98752e-008 2.07429e-007 
-0.00161488 6.43782 114.295 -0.0122375 0.0122528 180 -0.150862 18.7388 -0.155671 -0.267869 37.478 -0.280364 -0.267867 37.4777 -0.280362 2.33157e-005 -16.0483 1.94481e-005 8.04907e-017 -1.08835 -1.39796e-017 62.064 -55.7056 69.2321 12.832 -30.1049 2.7252 -120.797 -69.2383 -166.97 7.17047 14.6139 20.4321 -7.95139e-016 0 1.39149e-015 -7.95139e-016 3.18055e-015 1.59028e-015 -1.59028e-015 3.18055e-015 -5.96354e-016 -7.95139e-016 0 1.39149e-015 -0.0128206 0.00232797 8.4649e-005 1.59028e-015 0 -2.78299e-015 -7.95139e-016 0 1.39149e-015 -0.0160447 0.00299235 0.000852012 1.59028e-015 -6.36111e-015 5.1684e-015 -7.95139e-016 0 1.39149e-015 -0.0125877 0.00311358 0.00282882 -3.18055e-015 -3.18055e-015 -5.36719e-015 -7.95139e-016 0 1.39149e-015 -7.95139e-016 3.18055e-015 1.59028e-015 -1.59028e-015 3.18055e-015 -5.96354e-016 -34.3232 -35.1828 -60.6862 6.00223 -30.7921 12.6799 153.789 -66.946 139.686 -6.71764 58.5146 -10.0672 4.94914e-006 -2.00296e-006 -1.34992e-006 -7.35503e-015 0 -9.93923e-016 -7.45443e-015 3.18055e-015 -1.59028e-015 4.94914e-006 -2.00296e-006 -1.34992e-006 0.0129628 0.00232574 -9.10255e-005 -1.2921e-015 0 2.78299e-015 4.94914e-006 -2.00296e-006 -1.34992e-006 0.0163192 0.00302935 -0.000873411 3.27995e-015 0 6.95746e-016 4.94914e-006 -2.00296e-006 -1.34992e-006 0.0145668 0.00367681 -0.00326079 -1.56957e-006 3.92749e-006 5.67335e-007 4.94914e-006 -2.00296e-006 -1.34992e-006 -7.35503e-015 0 -9.93923e-016 -7.45443e-015 3.18055e-015 -1.59028e-015 -8.85792 -50.5844 -18.0902 -175.932 21.552 169.383 -7.54797 43.5157 -7.01136 4.60974e-008 -5.88708e-009 9.41782e-007 8.84182 -50.565 18.0514 175.954 21.5605 -169.406 7.53938 43.5034 6.99653 2.83194e-026 -6.80209e-010 2.38542e-015 
